<svg viewBox="0 0 32 32" xmlns="http://www.w3.org/2000/svg" xmlns:xlink="http://www.w3.org/1999/xlink" width="32.000000" height="32.000000" fill="none">
	<rect id="akar-icons:dribbble-fill" width="32.000000" height="32.000000" x="0.000000" y="0.000000" fill="rgb(255,255,255)" fill-opacity="0" />
	<g id="Group">
		<path id="Vector" d="M16 0C7.16667 0 0 7.16667 0 16C0 24.8333 7.16667 32 16 32C24.816 32 32 24.8333 32 16C32 7.16667 24.816 0 16 0ZM26.568 7.37467C28.538 9.77378 29.6281 12.7745 29.6573 15.8787C29.2067 15.792 24.6947 14.872 20.148 15.4453C20.0427 15.2187 19.956 14.976 19.852 14.7333C19.5692 14.0659 19.2687 13.4061 18.9507 12.7547C23.9827 10.7067 26.2733 7.75733 26.568 7.37467ZM16 2.36133C19.4707 2.36133 22.6467 3.66133 25.0587 5.796C24.816 6.14267 22.7507 8.90267 17.892 10.724C15.652 6.612 13.172 3.244 12.7893 2.724C13.8418 2.47825 14.9193 2.35609 16 2.36L16 2.36133ZM10.1867 3.644C10.5507 4.13067 12.98 7.51467 15.2533 11.54C8.86667 13.2413 3.22667 13.2067 2.62 13.2067C3.50533 8.972 6.36933 5.44933 10.1867 3.644ZM2.32533 16.0173L2.32533 15.6013C2.916 15.6187 9.544 15.7053 16.3653 13.6573C16.764 14.4213 17.128 15.2013 17.4747 15.9827C17.3013 16.0347 17.1107 16.0867 16.9373 16.1387C9.892 18.412 6.14267 24.624 5.83067 25.1453C3.57388 22.6407 2.32507 19.3887 2.32533 16.0173ZM16 29.6747C12.8413 29.6747 9.92667 28.5987 7.61867 26.7947C7.86133 26.2907 10.6373 20.9453 18.3427 18.256C18.3773 18.2387 18.396 18.2387 18.4293 18.2213C20.356 23.2013 21.136 27.384 21.3453 28.5813C19.696 29.2933 17.892 29.6747 16 29.6747ZM23.6187 27.332C23.48 26.4987 22.7507 22.508 20.9627 17.596C25.2493 16.92 28.9973 18.0307 29.4667 18.1867C28.876 21.9867 26.6893 25.2667 23.6187 27.332Z" fill="rgb(255,255,255)" fill-rule="evenodd" />
	</g>
</svg>
