<svg viewBox="0 0 21.1667 30.5" xmlns="http://www.w3.org/2000/svg" xmlns:xlink="http://www.w3.org/1999/xlink" width="21.166672" height="30.500000" fill="none" customFrame="#000000">
	<rect id="figma_logo" width="18.666666" height="28.000000" x="1.250000" y="1.250000" fill="rgb(255,255,255)" fill-opacity="0" />
	<path id="Vector" d="M11.9502 11.9502C12.8253 11.075 14.0123 10.5834 15.25 10.5834C16.4877 10.5834 17.6747 11.075 18.5498 11.9502C19.425 12.8254 19.9167 14.0124 19.9167 15.25C19.9167 16.4877 19.425 17.6747 18.5498 18.5499C17.6747 19.425 16.4877 19.9167 15.25 19.9167C14.0123 19.9167 12.8253 19.425 11.9502 18.5499C11.075 17.6747 10.5833 16.4877 10.5833 15.25C10.5833 14.0124 11.075 12.8254 11.9502 11.9502Z" fill-rule="nonzero" stroke="rgb(255,255,255)" stroke-width="2.5" />
	<path id="Vector" d="M2.61683 21.2835C3.492 20.4083 4.67899 19.9166 5.91667 19.9166L10.5833 19.9166L10.5833 24.5833C10.5833 25.821 10.0917 27.008 9.2165 27.8831C8.34133 28.7583 7.15434 29.25 5.91667 29.25C4.67899 29.25 3.492 28.7583 2.61683 27.8831C1.74167 27.008 1.25 25.821 1.25 24.5833C1.25 23.3456 1.74167 22.1586 2.61683 21.2835Z" fill-rule="nonzero" stroke="rgb(255,255,255)" stroke-width="2.5" />
	<path id="Vector" d="M10.5833 10.5833L15.25 10.5833C16.4877 10.5833 17.6747 10.0917 18.5498 9.2165C19.425 8.34133 19.9167 7.15434 19.9167 5.91667C19.9167 4.67899 19.425 3.492 18.5498 2.61684C17.6747 1.74167 16.4877 1.25 15.25 1.25L10.5833 1.25L10.5833 10.5833Z" fill-rule="nonzero" stroke="rgb(255,255,255)" stroke-width="2.5" />
	<path id="Vector" d="M2.61683 9.2165C3.492 10.0917 4.67899 10.5833 5.91667 10.5833L10.5833 10.5833L10.5833 1.25L5.91667 1.25C4.67899 1.25 3.492 1.74167 2.61683 2.61684C1.74167 3.492 1.25 4.67899 1.25 5.91667C1.25 7.15434 1.74167 8.34133 2.61683 9.2165Z" fill-rule="nonzero" stroke="rgb(255,255,255)" stroke-width="2.5" />
	<path id="Vector" d="M2.61683 18.5499C3.492 19.425 4.67899 19.9167 5.91667 19.9167L10.5833 19.9167L10.5833 10.5834L5.91667 10.5834C4.67899 10.5834 3.492 11.075 2.61683 11.9502C1.74167 12.8254 1.25 14.0124 1.25 15.25C1.25 16.4877 1.74167 17.6747 2.61683 18.5499Z" fill-rule="nonzero" stroke="rgb(255,255,255)" stroke-width="2.5" />
</svg>
