<svg viewBox="0 0 14 14" xmlns="http://www.w3.org/2000/svg" xmlns:xlink="http://www.w3.org/1999/xlink" width="14.000000" height="14.000000" opacity="0.600000024" fill="none" customFrame="#000000">
	<rect id="Iconly/Bold/Show" width="14.000000" height="14.000000" x="0.000000" y="0.000000" fill="rgb(255,255,255)" fill-opacity="0" />
	<g id="Show">
		<path id="Show" d="M4.7236 6.99998C4.7236 8.24442 5.7423 9.25695 7.00002 9.25695C8.25205 9.25695 9.27075 8.24442 9.27075 6.99998C9.27075 5.74988 8.25205 4.73735 7.00002 4.73735C5.7423 4.73735 4.7236 5.74988 4.7236 6.99998ZM10.3464 3.52685C11.3423 4.29614 12.1903 5.4218 12.7992 6.83028C12.8447 6.93776 12.8447 7.0622 12.7992 7.16402C11.5813 9.98099 9.41303 11.6666 7.00002 11.6666L6.99433 11.6666C4.58701 11.6666 2.41872 9.98099 1.20083 7.16402C1.1553 7.0622 1.1553 6.93776 1.20083 6.83028C2.41872 4.01331 4.58701 2.33331 6.99433 2.33331L7.00002 2.33331C8.20652 2.33331 9.35043 2.7519 10.3464 3.52685ZM7.0007 8.40722C7.78038 8.40722 8.41778 7.77368 8.41778 6.99873C8.41778 6.21813 7.78038 5.58459 7.0007 5.58459C6.93241 5.58459 6.86412 5.59025 6.80152 5.60156C6.77875 6.22379 6.26656 6.72156 5.63485 6.72156L5.60639 6.72156C5.58932 6.81207 5.57794 6.90257 5.57794 6.99873C5.57794 7.77368 6.21534 8.40722 7.0007 8.40722Z" fill="rgb(51,51,51)" fill-rule="evenodd" />
	</g>
</svg>
